<?xml version="1.0" encoding="utf-8"?>
<!-- Generator: Adobe Illustrator 24.1.0, SVG Export Plug-In . SVG Version: 6.00 Build 0)  -->
<svg version="1.1" id="Layer_1" xmlns="http://www.w3.org/2000/svg" xmlns:xlink="http://www.w3.org/1999/xlink" x="0px" y="0px"
	 viewBox="0 0 328.2 333.6" style="enable-background:new 0 0 328.2 333.6;" xml:space="preserve">
<style type="text/css">
	.st0{fill:none;stroke:#FFFFFF;stroke-width:4;stroke-miterlimit:10;stroke-dasharray:20.46;}
	.st1{fill:#FFFFFF;}
</style>
<path class="st0" d="M295.2,196.8c-14.6,71-84,116.7-155,102.1c-51.4-10.6-91.5-50.7-102.1-102.1"/>
<path class="st0" d="M40.8,133C61.4,63.5,134.5,23.9,204,44.5c42.6,12.7,75.9,46.1,88.5,88.7"/>
<circle class="st1" cx="163.3" cy="33.6" r="33.6"/>
<circle class="st1" cx="163.3" cy="300" r="33.6"/>
<path class="st1" d="M33.7,136.2c1.4,0,2.7,0.1,4.1,0.3c16.2,2.2,27.5,17.2,25.3,33.4c-2.2,16.2-17.2,27.5-33.4,25.3
	C13.4,193,2.1,178,4.3,161.8C6.3,147.1,18.9,136.2,33.7,136.2 M33.7,132.2C15.1,132.2,0,147.2,0,165.8s15.1,33.7,33.6,33.7
	s33.7-15.1,33.7-33.6c0-16.8-12.4-31-29-33.3C36.7,132.3,35.2,132.2,33.7,132.2z"/>
<path class="st1" d="M294.5,136.2c16.4,0,29.7,13.3,29.7,29.6c0,16.4-13.3,29.7-29.6,29.7c-16.4,0-29.7-13.3-29.7-29.6c0,0,0,0,0,0
	C264.9,149.5,278.2,136.2,294.5,136.2 M294.5,132.2c-18.6,0-33.7,15.1-33.7,33.6c0,18.6,15.1,33.7,33.6,33.7
	c18.6,0,33.7-15.1,33.7-33.6c0,0,0,0,0,0C328.2,147.3,313.1,132.2,294.5,132.2z"/>
</svg>
