<?xml version="1.0" encoding="utf-8"?>
<!-- Generator: Adobe Illustrator 24.1.0, SVG Export Plug-In . SVG Version: 6.00 Build 0)  -->
<svg version="1.1" id="Layer_1" xmlns="http://www.w3.org/2000/svg" xmlns:xlink="http://www.w3.org/1999/xlink" x="0px" y="0px"
	 viewBox="0 0 283.2 281.7" style="enable-background:new 0 0 283.2 281.7;" xml:space="preserve">
<style type="text/css">
	.st0{fill:#FFFFFF;}
	.st1{fill:none;stroke:#FFFFFF;stroke-width:3.0509;stroke-linecap:square;stroke-linejoin:round;}
	.st2{fill:none;stroke:#FFFFFF;stroke-width:3.0509;stroke-miterlimit:10;stroke-dasharray:19.1445;}
</style>
<g id="Layer_2_1_">
	<g id="Layer_1-2">
		<rect x="33.5" y="145.8" class="st0" width="102.6" height="102.6"/>
		<polyline class="st1" points="134.6,148.6 248,35.2 248,56.4 		"/>
		<line class="st1" x1="227.8" y1="35.1" x2="248" y2="35.1"/>
		<line class="st2" x1="35.4" y1="152.4" x2="35.4" y2="134.2"/>
		<line class="st2" x1="35.4" y1="119.2" x2="35.4" y2="101"/>
		<line class="st2" x1="35.4" y1="86" x2="35.4" y2="67.8"/>
		<line class="st2" x1="35.4" y1="52.8" x2="35.4" y2="34.6"/>
		<line class="st2" x1="50.7" y1="35.1" x2="68.9" y2="35.1"/>
		<line class="st2" x1="86" y1="35.1" x2="104.2" y2="35.1"/>
		<line class="st2" x1="121.4" y1="35.1" x2="139.6" y2="35.1"/>
		<line class="st2" x1="156.7" y1="35.1" x2="174.9" y2="35.1"/>
		<line class="st2" x1="192" y1="35.1" x2="210.2" y2="35.1"/>
		<line class="st2" x1="248" y1="73.1" x2="248" y2="91.3"/>
		<line class="st2" x1="248" y1="108.5" x2="248" y2="126.7"/>
		<line class="st2" x1="248" y1="143.9" x2="248" y2="162.1"/>
		<line class="st2" x1="248" y1="179.3" x2="248" y2="197.5"/>
		<line class="st2" x1="248" y1="214.7" x2="248" y2="232.9"/>
		<line class="st2" x1="249.2" y1="246.4" x2="231" y2="246.4"/>
		<line class="st2" x1="214.7" y1="246.4" x2="196.5" y2="246.4"/>
		<line class="st2" x1="180.2" y1="246.4" x2="162" y2="246.4"/>
		<line class="st2" x1="145.7" y1="246.4" x2="127.5" y2="246.4"/>
	</g>
</g>
</svg>
