<svg width="329" height="334" viewBox="0 0 329 334" fill="none" xmlns="http://www.w3.org/2000/svg">
<g clip-path="url(#clip0)">
<path d="M294.6 199.2C313.157 199.2 328.2 184.157 328.2 165.6C328.2 147.043 313.157 132 294.6 132C276.043 132 261 147.043 261 165.6C261 184.157 276.043 199.2 294.6 199.2Z" fill="#1E4558"/>
<path d="M33.6 199.2C52.1568 199.2 67.2 184.157 67.2 165.6C67.2 147.043 52.1568 132 33.6 132C15.0432 132 0 147.043 0 165.6C0 184.157 15.0432 199.2 33.6 199.2Z" fill="#1E4558"/>
<path d="M295.2 196.8C280.6 267.8 211.2 313.5 140.2 298.9C88.8 288.3 48.7 248.2 38.1 196.8" stroke="white" stroke-width="4" stroke-miterlimit="10" stroke-dasharray="20.46 20.46"/>
<path d="M40.8 133C61.4 63.5 134.5 23.9 204 44.5C246.6 57.2 279.9 90.6 292.5 133.2" stroke="white" stroke-width="4" stroke-miterlimit="10" stroke-dasharray="20.46 20.46"/>
<path d="M163.3 67.2C181.857 67.2 196.9 52.1568 196.9 33.6C196.9 15.0432 181.857 0 163.3 0C144.743 0 129.7 15.0432 129.7 33.6C129.7 52.1568 144.743 67.2 163.3 67.2Z" fill="white"/>
<path d="M163.3 333.6C181.857 333.6 196.9 318.557 196.9 300C196.9 281.443 181.857 266.4 163.3 266.4C144.743 266.4 129.7 281.443 129.7 300C129.7 318.557 144.743 333.6 163.3 333.6Z" fill="white"/>
<path d="M33.7 136.2C35.1 136.2 36.4 136.3 37.8 136.5C54 138.7 65.3 153.7 63.1 169.9C60.9 186.1 45.9 197.4 29.7 195.2C13.4 193 2.1 178 4.3 161.8C6.3 147.1 18.9 136.2 33.7 136.2ZM33.7 132.2C15.1 132.2 0 147.2 0 165.8C0 184.4 15.1 199.5 33.6 199.5C52.1 199.5 67.3 184.4 67.3 165.9C67.3 149.1 54.9 134.9 38.3 132.6C36.7 132.3 35.2 132.2 33.7 132.2Z" fill="white"/>
<path d="M294.5 136.2C310.9 136.2 324.2 149.5 324.2 165.8C324.2 182.2 310.9 195.5 294.6 195.5C278.2 195.5 264.9 182.2 264.9 165.9C264.9 149.5 278.2 136.2 294.5 136.2ZM294.5 132.2C275.9 132.2 260.8 147.3 260.8 165.8C260.8 184.4 275.9 199.5 294.4 199.5C313 199.5 328.1 184.4 328.1 165.9C328.2 147.3 313.1 132.2 294.5 132.2Z" fill="white"/>
</g>
<defs>
<clipPath id="clip0">
<rect width="328.2" height="333.6" fill="white"/>
</clipPath>
</defs>
</svg>
